Coordinates
version=1
nRows=11
nColumns=40
inDegrees=yes

Units are S.I. units (second, meters, Newtons, ...)
Angles are in degrees.

endheader
time	pelvis_tilt	pelvis_list	pelvis_rotation	pelvis_tx	pelvis_ty	pelvis_tz	hip_flexion_r	hip_adduction_r	hip_rotation_r	knee_angle_r	knee_angle_r_beta	ankle_angle_r	subtalar_angle_r	mtp_angle_r	hip_flexion_l	hip_adduction_l	hip_rotation_l	knee_angle_l	knee_angle_l_beta	ankle_angle_l	subtalar_angle_l	mtp_angle_l	lumbar_extension	lumbar_bending	lumbar_rotation	arm_flex_r	arm_add_r	arm_rot_r	elbow_flex_r	pro_sup_r	wrist_flex_r	wrist_dev_r	arm_flex_l	arm_add_l	arm_rot_l	elbow_flex_l	pro_sup_l	wrist_flex_l	wrist_dev_l
      9.88614286	     -3.89959891	     -4.47508396	      5.12045944	      0.75824570	      0.93211957	      0.51107965	      9.34295468	      4.16376631	    -18.18050136	     13.50677423	     13.50677423	      9.99225441	     -1.36233985	     -5.60850081	     32.87221952	    -10.32241000	      0.88078047	     44.47977193	     44.47977193	      9.65504858	    -17.13769619	      9.95742266	    -10.04052369	      7.15603435	      2.73823654	     27.25982801	    -20.71599542	     -7.58846757	     85.64292292	     44.74179133	      0.00000000	      0.00000000	     -8.98884939	     -6.05016010	     -1.35572836	     28.71765858	     45.12781266	      0.00000000	      0.00000000
      9.89978571	     -4.05167883	     -4.52499545	      5.40305567	      0.75681633	      0.93201715	      0.51100572	      8.74047967	      4.35274943	    -18.38025758	     12.75143541	     12.75143541	     10.08418710	     -1.11775751	     -5.65067347	     33.07914033	     -9.82907866	      1.18872647	     40.66725845	     40.66725845	      9.88479952	    -16.35598898	     10.23583354	     -9.98863158	      7.29319155	      2.80313249	     29.15729342	    -20.54810474	     -7.77534528	     87.06657342	     44.71844842	      0.00000000	      0.00000000	     -9.93748987	     -5.68332885	     -0.85001113	     28.44110061	     45.04006787	      0.00000000	      0.00000000
      9.91342857	     -4.17649912	     -4.60343534	      5.66492709	      0.75544605	      0.93177296	      0.51082898	      8.14241046	      4.53673746	    -18.70564729	     12.07552668	     12.07552668	     10.19078525	     -0.63644497	     -5.83773559	     33.17167671	     -9.38234485	      1.51617339	     36.88623862	     36.88623862	     10.09334488	    -15.23979665	     10.37684520	     -9.97973726	      7.47965658	      2.89048623	     30.90318426	    -20.42906647	     -7.80625079	     88.70429087	     44.68298837	      0.00000000	      0.00000000	    -10.85784780	     -5.37398562	     -0.35327140	     28.36826716	     44.95287392	      0.00000000	      0.00000000
      9.92707143	     -4.34811467	     -4.70025521	      5.89187453	      0.75407700	      0.93128625	      0.51063982	      7.66951061	      4.71542397	    -19.01802943	     11.54195689	     11.54195689	     10.35768191	     -0.20293064	     -6.04869709	     33.26902197	     -9.00402043	      1.75556030	     33.24383485	     33.24383485	     10.29779916	    -13.82712638	     10.53935274	     -9.90591448	      7.65953066	      3.08628467	     32.56702229	    -20.41024523	     -7.80750458	     90.18248576	     44.64976717	      0.00000000	      0.00000000	    -11.68072904	     -5.10371093	      0.04236957	     28.37354847	     44.88158835	      0.00000000	      0.00000000
      9.94071429	     -4.43511849	     -4.84040439	      6.10819331	      0.75286919	      0.93079979	      0.51038406	      7.08678602	      4.94592463	    -19.40782766	     10.98465297	     10.98465297	     10.51267004	      0.41571439	     -6.31165691	     33.24472141	     -8.70478011	      1.99021072	     29.81769481	     29.81769481	     10.48012941	    -12.26504530	     10.65164759	     -9.93764605	      7.89987613	      3.19729054	     34.13010819	    -20.25844621	     -7.67713235	     91.85201022	     44.60778160	      0.00000000	      0.00000000	    -12.48223403	     -4.87495130	      0.53892063	     28.51098347	     44.79592501	      0.00000000	      0.00000000
      9.95435714	     -4.51321882	     -4.99934137	      6.28791688	      0.75177038	      0.93020842	      0.51013404	      6.53590151	      5.18623211	    -19.76871594	     10.52014524	     10.52014524	     10.70305114	      1.00995124	     -6.56819425	     33.20282430	     -8.48720615	      2.06304436	     26.68942260	     26.68942260	     10.61760112	    -10.67560179	     10.83351208	     -9.94411105	      8.14838185	      3.35364204	     35.58538947	    -20.11665864	     -7.50580562	     93.37208383	     44.56942824	      0.00000000	      0.00000000	    -13.21318598	     -4.72135576	      1.05326913	     28.71802464	     44.70972653	      0.00000000	      0.00000000
      9.96800000	     -4.60113033	     -5.14781868	      6.42828710	      0.75073066	      0.92955729	      0.50991698	      6.03728895	      5.41542251	    -20.02936663	     10.14554981	     10.14554981	     10.95103871	      1.47830575	     -6.76344440	     33.19261027	     -8.31142161	      1.97456695	     23.95534772	     23.95534772	     10.62169673	     -9.21176484	     11.15666752	     -9.92869509	      8.31396398	      3.55508989	     36.94604491	    -19.94823494	     -7.33878891	     94.62085024	     44.53740121	      0.00000000	      0.00000000	    -13.80200809	     -4.59516881	      1.46976918	     28.89005500	     44.64066495	      0.00000000	      0.00000000
      9.98164286	     -4.61084798	     -5.37111600	      6.56910156	      0.74996879	      0.92891459	      0.50959175	      5.38113103	      5.71709059	    -20.60621163	      9.65686025	      9.65686025	     11.14485625	      2.52860255	     -7.00355632	     33.15875705	     -8.27438198	      1.63674365	     21.71275785	     21.71275785	     10.68451144	     -7.74402356	     11.35707753	     -9.98649286	      8.65745899	      3.63965809	     38.17877140	    -19.79090490	     -6.81969314	     96.37131432	     44.49747885	      0.00000000	      0.00000000	    -14.63465424	     -4.72058487	      2.84486444	     29.83410191	     44.43832000	      0.00000000	      0.00000000
      9.99528571	     -4.77525002	     -5.61919845	      6.63563004	      0.74912476	      0.92798181	      0.50931471	      5.10051296	      6.01500832	    -20.66193726	      9.53794790	      9.53794790	     11.43979535	      2.62964960	     -7.10572207	     33.32321657	     -8.23692250	      1.34259944	     19.92590116	     19.92590116	     10.50102749	     -6.93498320	     11.73305060	     -9.82662508	      8.92611370	      3.95118196	     39.33439638	    -19.70481904	     -6.81745718	     96.96748979	     44.48688809	      0.00000000	      0.00000000	    -14.89306435	     -4.63993448	      3.05214923	     29.88817440	     44.40746974	      0.00000000	      0.00000000
     10.00892857	     -4.71377723	     -5.63012923	      6.68039215	      0.74873367	      0.92753952	      0.50890805	      4.42643747	      6.10558087	    -20.72465977	      9.25591628	      9.25591628	     11.75546560	      2.97095239	     -7.11670015	     33.03927396	     -8.06917627	      0.64356759	     18.35278777	     18.35278777	     10.27264226	     -6.08258219	     12.07167024	     -9.93495296	      8.92323812	      3.96410947	     40.26930975	    -19.21166274	     -6.51447117	     97.94994037	     44.45685940	      0.00000000	      0.00000000	    -15.21892679	     -4.65716186	      3.44989816	     30.08060904	     44.35070374	      0.00000000	      0.00000000
     10.02257143	     -4.68008457	     -5.79053582	      6.70492083	      0.74849731	      0.92685582	      0.50848830	      3.82789294	      6.29137527	    -21.13793807	      9.10780020	      9.10780020	     12.40138250	      4.01690280	     -6.45663221	     32.95525448	     -8.09600524	     -0.17629552	     17.45514609	     17.45514609	      9.83376960	     -5.33053973	     11.80873848	     -9.97461124	      9.10755733	      4.01665328	     41.05897389	    -19.06720421	     -5.66124657	     99.00985533	     44.47480699	      0.00000000	      0.00000000	    -16.21942866	     -5.48786447	      7.01047879	     32.35692655	     43.92004304	      0.00000000	      0.00000000
